<svg version="1.1" xmlns="http://www.w3.org/2000/svg" xmlns:xlink="http://www.w3.org/1999/xlink" x="0px" y="0px" viewBox="0 0 336 64" style="enable-background:new 0 0 336 64;" xml:space="preserve">
<path fill="#ea4335" d="M22.86,35.55l14.99-8.64c3.53-2.12,4.76-6.53,2.65-10.05c-2.12-3.53-6.53-4.76-10.05-2.65L4.69,29.2 L22.86,35.55z"/>
<path fill="#4285f4" d="M34.15,57.95c2.47,0,5.12-1.41,6.35-3.7c2.12-3.53,0.88-8.11-2.65-10.05L11.93,29.2 c-3.53-2.12-8.11-0.88-10.05,2.65c-2.12,3.53-0.88,8.11,2.65,10.05l25.93,14.99C31.68,57.6,32.92,57.95,34.15,57.95z"/>
<path fill="#fbbc04" d="M60.08,57.95c1.23,0,2.47-0.35,3.7-1.06L89.72,41.9l-18.17-6.53l-15.17,8.82c-3.53,2.12-4.76,6.53-2.65,10.05 C54.97,56.54,57.44,57.95,60.08,57.95z"/>
<path fill="#0f9d58" d="M86.01,42.96c2.47,0,5.12-1.41,6.35-3.7c2.12-3.53,0.88-8.11-2.65-10.05L63.79,14.21 c-3.53-2.12-8.11-0.88-10.05,2.65c-2.12,3.53-0.88,8.11,2.65,10.05L82.31,41.9C83.37,42.61,84.6,42.96,86.01,42.96z"/>
<path fill="#676c72" d="M118.47,57.42c-1.76-1.23-3-2.82-3.53-4.59l3.53-1.59c0.53,1.41,1.41,2.47,2.65,3.18
  c1.23,0.88,2.65,1.23,4.23,1.23c2.47,0,4.23-0.71,5.64-1.94c1.41-1.23,1.94-3.18,1.94-5.64v-2.65h-0.18
  c-0.71,1.23-1.76,2.12-3.18,2.82c-1.41,0.71-3,1.06-4.76,1.06c-1.94,0-3.88-0.53-5.47-1.59c-1.59-1.06-3-2.47-3.88-4.41
  c-1.23-1.59-1.59-3.7-1.59-6.17c0-2.29,0.53-4.41,1.41-6.35c1.06-1.94,2.29-3.35,3.88-4.41c1.59-1.06,3.53-1.59,5.47-1.59
  c1.76,0,3.35,0.35,4.76,1.06c1.41,0.71,2.47,1.76,3.18,3h0.18V25.5h3.7v22.23c0,3.7-1.06,6.53-3.18,8.47c-2.12,1.94-4.76,3-8.11,3
  C122.53,59.36,120.24,58.66,118.47,57.42z M129.06,44.9c1.06-0.71,2.12-1.76,2.65-3c0.71-1.41,1.06-2.82,1.06-4.76
  c0-1.76-0.35-3.35-1.06-4.76c-0.71-1.41-1.59-2.29-2.65-3s-2.47-1.06-3.88-1.06c-1.41,0-2.65,0.35-3.88,1.06
  c-1.23,0.71-2.12,1.76-2.82,3c-0.71,1.41-1.06,2.82-1.06,4.76c0,1.76,0.35,3.35,1.06,4.76c0.71,1.41,1.59,2.29,2.82,3
  c1.23,0.71,2.47,1.06,3.88,1.06C126.59,45.96,127.82,45.6,129.06,44.9z M145.64,47.9c-1.76-1.06-3.18-2.65-4.23-4.41
  c-1.06-1.94-1.59-3.88-1.59-6.17s0.53-4.41,1.59-6.17c1.06-1.94,2.47-3.35,4.23-4.41c1.76-1.06,3.88-1.59,6.17-1.59
  s4.41,0.53,6.17,1.59c1.76,1.06,3.18,2.65,4.23,4.41c1.06,1.94,1.59,3.88,1.59,6.17s-0.53,4.41-1.59,6.17
  c-1.06,1.94-2.47,3.35-4.23,4.41s-3.88,1.59-6.17,1.59S147.4,48.96,145.64,47.9z M155.69,44.9c1.23-0.71,2.29-1.76,3-3
  c0.71-1.41,1.06-2.82,1.06-4.76c0-1.76-0.35-3.35-1.06-4.76c-0.71-1.41-1.76-2.29-3-3c-1.23-0.71-2.47-1.06-4.06-1.06
  c-1.41,0-2.82,0.35-4.06,1.06c-1.23,0.71-2.29,1.76-3,3c-0.71,1.41-1.06,2.82-1.06,4.76c0,1.76,0.35,3.35,1.06,4.76
  c0.71,1.41,1.76,2.29,3,3c1.23,0.71,2.65,1.06,4.06,1.06C153.22,45.96,154.46,45.6,155.69,44.9z M171.92,47.9
  c-1.76-1.06-3.18-2.65-4.23-4.41c-1.06-1.94-1.59-3.88-1.59-6.17s0.53-4.41,1.59-6.17c1.06-1.94,2.47-3.35,4.23-4.41
  c1.76-1.06,3.88-1.59,6.17-1.59c2.29,0,4.41,0.53,6.17,1.59c1.76,1.06,3.18,2.65,4.23,4.41c1.06,1.94,1.59,3.88,1.59,6.17
  s-0.53,4.41-1.59,6.17c-1.06,1.94-2.47,3.35-4.23,4.41c-1.76,1.06-3.88,1.59-6.17,1.59C175.8,49.49,173.68,48.96,171.92,47.9z
   M181.98,44.9c1.23-0.71,2.29-1.76,3-3c0.71-1.41,1.06-2.82,1.06-4.76c0-1.76-0.35-3.35-1.06-4.76c-0.71-1.41-1.76-2.29-3-3
  c-1.23-0.71-2.47-1.06-4.06-1.06c-1.41,0-2.82,0.35-4.06,1.06c-1.23,0.71-2.29,1.76-3,3c-0.71,1.41-1.06,2.82-1.06,4.76
  c0,1.76,0.35,3.35,1.06,4.76c0.71,1.41,1.76,2.29,3,3c1.23,0.71,2.65,1.06,4.06,1.06C179.33,45.96,180.74,45.6,181.98,44.9z
   M196.97,57.42c-1.76-1.23-3-2.82-3.53-4.59l3.53-1.59c0.53,1.41,1.41,2.47,2.65,3.18c1.23,0.88,2.65,1.23,4.23,1.23
  c2.47,0,4.23-0.71,5.64-1.94c1.41-1.23,1.94-3.18,1.94-5.64v-2.65h-0.18c-0.71,1.23-1.76,2.12-3.18,2.82
  c-1.41,0.71-3,1.06-4.76,1.06c-1.94,0-3.88-0.53-5.47-1.59c-1.59-1.06-3-2.47-3.88-4.41c-1.06-1.94-1.41-4.06-1.41-6.35
  c0-2.29,0.53-4.41,1.41-6.35c1.06-1.94,2.29-3.35,3.88-4.41c1.59-1.06,3.53-1.59,5.47-1.59c1.76,0,3.35,0.35,4.76,1.06
  c1.41,0.71,2.47,1.76,3.18,3h0.18v-3.35h3.7v22.23c0,3.7-1.06,6.53-3.18,8.47c-2.12,1.94-4.76,3-8.11,3
  C201.03,59.36,198.73,58.66,196.97,57.42z M207.55,44.9c1.06-0.71,2.12-1.76,2.65-3c0.71-1.41,1.06-2.82,1.06-4.76
  c0-1.76-0.35-3.35-1.06-4.76c-0.71-1.41-1.59-2.29-2.65-3c-1.06-0.71-2.47-1.06-3.88-1.06c-1.41,0-2.65,0.35-3.88,1.06
  c-1.23,0.71-2.12,1.76-2.82,3c-0.71,1.41-1.06,2.82-1.06,4.76c0,1.76,0.35,3.35,1.06,4.76c0.71,1.41,1.59,2.29,2.82,3
  c1.23,0.71,2.47,1.06,3.88,1.06S206.32,45.6,207.55,44.9z M219.72,16.15h3.88v32.63h-3.88V16.15z M232.6,47.9
  c-1.76-1.06-3.18-2.47-4.06-4.41c-1.06-1.94-1.41-3.88-1.41-6.35c0-2.29,0.53-4.23,1.41-6.17s2.29-3.35,3.88-4.59
  c1.76-1.06,3.7-1.76,6-1.76c2.29,0,4.23,0.53,6,1.59c1.59,1.06,3,2.47,3.88,4.23c0.88,1.76,1.41,3.88,1.41,6.17
  c0,0.53,0,0.88-0.18,1.23h-18.35c0.18,1.76,0.53,3.18,1.23,4.41c0.71,1.23,1.76,2.12,2.82,2.65c1.23,0.53,2.47,0.88,3.7,0.88
  c3,0,5.29-1.41,6.88-4.23l3.35,1.59c-1.06,1.94-2.29,3.35-4.06,4.41c-1.76,1.06-3.7,1.59-6.17,1.59
  C236.31,49.49,234.37,48.96,232.6,47.9z M245.3,34.67c0-1.06-0.35-1.94-0.88-3s-1.23-1.76-2.29-2.47s-2.29-1.06-3.88-1.06
  c-1.76,0-3.35,0.53-4.59,1.76c-1.23,1.23-2.12,2.65-2.47,4.59h14.11V34.67z M253.42,48.07c-0.53-0.53-0.88-1.23-0.88-1.94
  c0-0.71,0.35-1.41,0.88-1.94c0.53-0.53,1.23-0.88,2.12-0.88c0.71,0,1.41,0.35,1.94,0.88s0.88,1.23,0.88,1.94
  c0,0.71-0.35,1.41-0.88,1.94c-0.53,0.53-1.23,0.88-1.94,0.88C254.65,48.78,253.95,48.6,253.42,48.07z M267.18,47.9
  c-1.76-1.06-3-2.47-4.06-4.41s-1.41-4.06-1.41-6.35s0.53-4.41,1.41-6.35c1.06-1.94,2.29-3.35,4.06-4.41
  c1.76-1.06,3.53-1.59,5.64-1.59c1.76,0,3.35,0.35,4.76,1.23c1.41,0.88,2.47,1.76,3.18,3h0.18l-0.18-3.18v-9.7h3.88v32.63h-3.7v-3.35
  h-0.18c-0.71,1.23-1.76,2.12-3.18,3s-3,1.23-4.76,1.23C270.7,49.49,268.76,48.96,267.18,47.9z M277.05,44.9
  c1.23-0.71,2.12-1.76,2.82-3.18s1.06-2.82,1.06-4.59c0-1.76-0.35-3.35-1.06-4.59c-0.71-1.41-1.59-2.29-2.82-3.18
  c-1.23-0.71-2.47-1.06-3.88-1.06s-2.65,0.35-3.7,1.06c-1.23,0.71-2.12,1.76-2.82,3.18c-0.71,1.41-1.06,2.82-1.06,4.59
  c0,1.76,0.35,3.35,1.06,4.59c0.71,1.41,1.59,2.47,2.82,3.18c1.23,0.71,2.47,1.06,3.7,1.06C274.59,45.96,275.82,45.6,277.05,44.9z
   M293.46,47.9c-1.76-1.06-3.18-2.47-4.06-4.41c-1.06-1.94-1.41-3.88-1.41-6.35c0-2.29,0.53-4.23,1.41-6.17
  c0.88-1.94,2.29-3.35,3.88-4.59c1.76-1.06,3.7-1.76,6-1.76c2.29,0,4.23,0.53,6,1.59c1.59,1.06,3,2.47,3.88,4.23
  c0.88,1.76,1.41,3.88,1.41,6.17c0,0.53,0,0.88-0.18,1.23h-18.35c0.18,1.76,0.53,3.18,1.23,4.41c0.71,1.23,1.76,2.12,2.82,2.65
  c1.23,0.53,2.47,0.88,3.7,0.88c3,0,5.29-1.41,6.88-4.23l3.35,1.59c-1.06,1.94-2.29,3.35-4.06,4.41s-3.7,1.59-6.17,1.59
  C297.34,49.49,295.22,48.96,293.46,47.9z M306.16,34.67c0-1.06-0.35-1.94-0.88-3s-1.23-1.76-2.29-2.47s-2.29-1.06-3.88-1.06
  c-1.76,0-3.35,0.53-4.59,1.76c-1.23,1.23-2.12,2.65-2.47,4.59h14.11V34.67z M310.92,25.67h4.06l7.23,18.7h0.18l7.23-18.7h4.06
	l-9.53,23.28h-3.88L310.92,25.67z"/>
</svg>
