<?xml version="1.0" encoding="UTF-8" standalone="no"?>
<svg
   xmlns:dc="http://purl.org/dc/elements/1.1/"
   xmlns:cc="http://creativecommons.org/ns#"
   xmlns:rdf="http://www.w3.org/1999/02/22-rdf-syntax-ns#"
   xmlns:svg="http://www.w3.org/2000/svg"
   xmlns="http://www.w3.org/2000/svg"
   viewBox="0 0 3337.8 785.57465"
   height="785.57465"
   width="3337.8"
   xml:space="preserve"
   id="svg2"
   version="1.1"><metadata
     id="metadata8"><rdf:RDF><cc:Work
         rdf:about=""><dc:format>image/svg+xml</dc:format><dc:type
           rdf:resource="http://purl.org/dc/dcmitype/StillImage" /></cc:Work></rdf:RDF></metadata><defs
     id="defs6"><clipPath
       id="clipPath18"
       clipPathUnits="userSpaceOnUse"><path
         id="path16"
         d="M 0,589.181 H 2503.351 V 0 H 0 Z" /></clipPath></defs><g
     transform="matrix(1.3333333,0,0,-1.3333333,0,785.57467)"
     id="g10"><g
       id="g12"><g
         clip-path="url(#clipPath18)"
         id="g14"><g
           transform="translate(652.688,296.3667)"
           id="g20"><path
             id="path22"
             style="fill:#ed3b45;fill-opacity:1;fill-rule:nonzero;stroke:none"
             d="m 0,0 c 7.074,-33.524 7.074,-37.046 7.074,-41.455 0,-57.344 -64.398,-89.094 -149.073,-89.094 -191.402,0 -358.965,112.026 -358.965,186.117 0,11.482 2.633,22.054 6.165,29.973 -68.806,-3.531 -157.889,-15.86 -157.889,-94.37 0,-128.763 305.172,-287.538 546.848,-287.538 185.228,0 231.959,83.799 231.959,149.949 C 126.119,-94.37 81.144,-35.292 0,0 m -133.171,-46.762 c 51.16,0 125.232,10.593 125.232,71.459 0,4.745 -0.123,9.368 -1.256,14.002 l -30.473,132.405 c -7.083,29.096 -13.248,42.332 -64.396,67.908 -39.709,20.298 -126.129,53.802 -151.715,53.802 -23.808,0 -30.87,-30.852 -59.089,-30.852 -27.33,0 -47.629,22.913 -73.214,22.913 -24.687,0 -40.566,-16.749 -52.916,-51.15 0,0 -34.401,-97.014 -38.81,-111.128 -0.888,-2.653 -0.908,-5.622 -0.908,-7.94 0,-37.709 148.499,-161.419 347.545,-161.419" /></g><g
           transform="translate(652.688,296.3667)"
           id="g24"><path
             id="path26"
             style="fill:#292929;fill-opacity:1;fill-rule:nonzero;stroke:none"
             d="m 0,0 c 7.074,-33.524 7.074,-37.046 7.074,-41.455 0,-57.344 -64.398,-89.094 -149.073,-89.094 -191.402,0 -358.965,112.026 -358.965,186.117 0,11.482 2.633,22.054 6.165,29.973 l 14.991,37.056 c -0.888,-2.653 -0.908,-5.622 -0.908,-7.94 0,-37.709 148.499,-161.419 347.545,-161.419 51.16,0 125.232,10.593 125.232,71.459 0,4.745 -0.123,9.368 -1.256,14.002 z" /></g><g
           transform="translate(922.7134,142.2446)"
           id="g28"><path
             id="path30"
             style="fill:#292929;fill-opacity:1;fill-rule:nonzero;stroke:none"
             d="m 0,0 h 74.01 v 109.728 h 56.364 L 187.188,0 h 82.593 l -66.253,120.474 c 35.719,15.513 56.813,47.782 56.813,84.777 0,54.211 -42.618,95.95 -106.299,95.95 H 0 Z m 147.164,237.959 c 24.512,0 38.29,-15.492 38.29,-34.004 0,-18.503 -13.778,-33.984 -38.29,-33.984 H 74.01 v 67.988 z M 267.209,113.596 c 0,-66.254 54.222,-117.903 123.926,-117.903 38.288,0 66.251,10.327 95.095,34.434 L 440.192,71.008 C 429.423,59.824 413.494,53.782 394.583,53.782 c -25.83,0 -46.924,14.216 -55.956,36.157 h 162.236 v 17.197 c 0,72.295 -48.638,124.364 -114.893,124.364 -66.692,0 -118.761,-51.64 -118.761,-117.904 m 117.464,61.099 c 21.952,0 40.445,-14.195 47.764,-36.137 h -95.106 c 6.898,22.799 24.106,36.137 47.342,36.137 M 700.51,0 h 68.846 v 316.276 l -69.7,-15.075 v -85.623 c -17.23,9.901 -37.018,15.064 -58.09,15.064 -66.274,0 -118.344,-51.211 -118.344,-116.608 C 523.222,48.619 574.434,-3 639.411,-3 c 22.372,0 43.457,6.868 61.099,19.788 z M 591.628,114.034 c 0,32.689 25.843,57.652 59.826,57.652 18.929,0 36.137,-6.46 48.202,-17.646 V 74.449 c -12.482,-12.054 -28.83,-18.075 -48.202,-18.075 -33.567,0 -59.826,24.952 -59.826,57.66 M 873.667,0 h 74.011 V 117.902 H 1071.59 V 0 h 74.01 v 301.201 h -74.01 V 185.452 H 947.678 v 115.749 h -74.011 z m 378.235,-3.858 c 24.533,0 44.331,5.151 62.825,17.636 V 0 h 68.823 v 145.865 c 0,55.519 -37.434,86.073 -99.808,86.073 -34.863,0 -69.275,-8.195 -106.28,-24.973 l 24.963,-51.19 c 26.657,11.184 49.048,18.064 68.826,18.064 28.84,0 43.476,-11.186 43.476,-33.984 v -11.186 c -16.349,4.286 -33.578,6.441 -51.641,6.441 -58.519,0 -93.807,-24.524 -93.807,-68.408 0,-40.027 31.84,-70.56 82.623,-70.56 m -21.27,71.856 c 0,15.043 15.063,22.359 37.841,22.359 15.084,0 28.862,-2.153 41.334,-5.163 V 55.935 c -12.92,-7.316 -27.963,-10.746 -43.475,-10.746 -22.351,0 -35.7,8.593 -35.7,22.809 m 216.602,1.276 c 0,-48.618 29.268,-72.274 82.623,-72.274 12.897,0 35.289,3 48.618,6.868 v 56.374 c -11.613,-3.449 -20.207,-4.725 -31.392,-4.725 -21.961,0 -30.126,6.878 -30.126,27.524 v 86.491 h 63.68 v 58.099 h -63.68 v 73.57 l -69.723,-15.041 v -58.529 h -46.028 v -58.099 h 46.028 z" /></g></g></g></g></svg>